<?xml version="1.0" encoding="iso-8859-1"?>
<!-- Generator: Adobe Illustrator 14.0.0, SVG Export Plug-In . SVG Version: 6.00 Build 43363)  -->
<!DOCTYPE svg PUBLIC "-//W3C//DTD SVG 1.1//EN" "http://www.w3.org/Graphics/SVG/1.1/DTD/svg11.dtd">
<svg version="1.1" id="Layer_1" xmlns="http://www.w3.org/2000/svg" xmlns:xlink="http://www.w3.org/1999/xlink" x="0px" y="0px"
	 width="321.663px" height="305.999px" viewBox="0 0 321.663 305.999" enable-background="new 0 0 321.663 305.999"
	 xml:space="preserve">
<g>
	<linearGradient id="SVGID_1_" gradientUnits="userSpaceOnUse" x1="160.7812" y1="304.2812" x2="160.7812" y2="204.1562">
		<stop  offset="0" style="stop-color:#F1F1F2"/>
		<stop  offset="1" style="stop-color:#E6E6E6"/>
	</linearGradient>
	<path fill="url(#SVGID_1_)" d="M23.565,304.281c-11.82,0-21.49-9.688-21.49-21.5v-57.125c0-11.812,9.67-21.5,21.49-21.5h274.432
		c11.818,0,21.49,9.688,21.49,21.5v57.125c0,11.812-9.672,21.5-21.49,21.5H23.565z"/>
	<path fill="none" stroke="#B3B3B3" stroke-width="4.2981" d="M23.565,304.281c-11.82,0-21.49-9.688-21.49-21.5v-57.125
		c0-11.812,9.67-21.5,21.49-21.5h274.432c11.818,0,21.49,9.688,21.49,21.5v57.125c0,11.812-9.672,21.5-21.49,21.5H23.565z"/>
</g>
<path fill="#FDCE0E" d="M84.112,60.906c9.08-9.812,22.987-17.062,44.303-17.062c61.359,0,61.359,61.312,61.359,61.312s0,0,0,26.312
	c0,70.094,69.871,70.094,69.871,70.094V157.75c-0.074,0-8.211-0.594-15.275-4.062c-5.441-2.875-10.764-6.719-10.764-22.219v-26.312
	c0-4.25-0.588-26.844-12.299-50.375C203.856,19.969,170.001,0,128.419,0C98.101,0,71.888,10.594,53.151,29.938L84.112,60.906z"/>
<path fill="#659840" d="M128.415,43.844c-60.268,0-61.361,51.25-61.361,61.75c0,1.395,0,4.287,0,8c0,0.281,0,0.562,0,0.844
	c0,9.228,0,18.553-0.005,25.406c0,7.125,0,11.844,0,11.844s0-0.076,0.005-0.218c0,24.921,0,50.593,0,50.593s0-70,70.123-70
	c15.568,0,8.986,0,16.701,0c35.896,0,35.896,0,35.896,0s0-15.812,0-26.469C189.78,95.094,188.679,43.844,128.415,43.844z"/>
<g>
	<path fill="#659840" d="M75.686,238v38.25h-4.852v-6.594c-2.062,2.5-4.377,4.406-6.943,5.656c-2.566,1.281-5.373,1.781-8.42,1.781
		c-5.414,0-10.037-1.844-13.869-5.75c-3.832-3.938-5.748-8.75-5.748-14.344c0-5.5,1.934-10.219,5.801-14.156
		c3.867-3.875,8.52-5.844,13.957-5.844c3.141,0,5.982,0.656,8.525,2s4.775,3.344,6.697,6.062V238H75.686z M56.016,241.75
		c-2.739,0-5.268,0.656-7.585,2.031c-2.318,1.312-4.161,3.219-5.531,5.656c-1.369,2.406-2.054,5-2.054,7.719
		c0,2.688,0.69,5.281,2.071,7.688c1.381,2.5,3.236,4.406,5.565,5.75c2.329,1.406,4.829,2.094,7.498,2.094
		c2.692,0,5.244-0.688,7.655-2.031c2.411-1.375,4.266-3.188,5.565-5.562c1.3-2.281,1.949-5,1.949-7.781
		c0-4.469-1.457-8.125-4.372-11.219C63.863,243.094,60.276,241.75,56.016,241.75z"/>
	<path fill="#659840" d="M91.049,223.781h4.922V238h7.805v4.25h-7.805v34h-4.922v-34h-6.715V238h6.715V223.781z"/>
	<path fill="#659840" d="M111.158,223.094h4.922v21.75c1.992-2.75,4.184-4.594,6.574-5.875c2.391-1.312,4.98-1.969,7.769-1.969
		c2.859,0,5.398,0.594,7.613,2.188c2.215,1.406,3.85,3.406,4.904,5.875c1.055,2.406,1.582,6.25,1.582,11.5v19.688h-4.922V258
		c0-4.406-0.176-7.344-0.527-8.844c-0.609-2.562-1.717-4.562-3.322-5.688c-1.607-1.281-3.711-1.938-6.312-1.938
		c-2.977,0-5.643,1-7.998,2.969s-3.908,4.406-4.658,7.312c-0.469,1.875-0.703,5.344-0.703,10.281v14.156h-4.922V223.094z"/>
	<path fill="#659840" d="M187.272,263.531l4.148,2.062c-1.361,2.812-2.934,4.969-4.715,6.594c-1.783,1.656-3.789,2.906-6.018,3.75
		c-2.23,0.844-4.752,1.156-7.566,1.156c-6.24,0-11.119-1.906-14.639-6c-3.518-4.094-5.277-8.75-5.277-14
		c0-4.75,1.488-9.094,4.469-12.844c3.775-4.844,8.832-7.25,15.166-7.25c6.521,0,11.729,2.469,15.623,7.406
		c2.768,3.5,4.176,7.875,4.223,13.094h-34.418c0.094,4.438,1.514,8.094,4.258,10.938c2.746,2.844,6.137,4.25,10.174,4.25
		c1.947,0,3.842-0.344,5.684-1.031c1.842-0.656,3.408-1.562,4.699-2.688S185.771,266,187.272,263.531z M187.272,253.25
		c-0.658-2.656-1.613-4.719-2.869-6.312s-2.916-2.844-4.98-3.781c-2.066-0.969-4.236-1.562-6.512-1.562
		c-3.756,0-6.982,1.312-9.68,3.75c-1.973,1.75-3.463,4.25-4.471,7.906H187.272z"/>
	<path fill="#659840" d="M201.862,238h4.922v6.844c1.969-2.75,4.148-4.594,6.539-5.875c2.391-1.312,4.992-1.969,7.805-1.969
		c2.859,0,5.396,0.594,7.611,2.188c2.215,1.406,3.85,3.406,4.904,5.875c1.055,2.438,1.582,6.281,1.582,11.5v19.688h-4.922V258
		c0-4.406-0.184-7.344-0.549-8.844c-0.57-2.562-1.664-4.562-3.281-5.688c-1.617-1.281-3.727-1.938-6.328-1.938
		c-2.977,0-5.645,1-8,2.969s-3.908,4.406-4.658,7.312c-0.469,1.875-0.703,5.344-0.703,10.281v14.156h-4.922V238z"/>
	<path fill="#659840" d="M283.882,238v38.25h-4.852v-6.594c-2.062,2.5-4.377,4.406-6.943,5.656c-2.566,1.281-5.373,1.781-8.42,1.781
		c-5.414,0-10.037-1.844-13.869-5.75c-3.832-3.938-5.748-8.75-5.748-14.344c0-5.5,1.934-10.219,5.801-14.156
		c3.867-3.875,8.52-5.844,13.957-5.844c3.141,0,5.982,0.656,8.525,2s4.775,3.344,6.697,6.062V238H283.882z M264.212,241.75
		c-2.74,0-5.268,0.656-7.586,2.031c-2.318,1.312-4.16,3.219-5.531,5.656c-1.369,2.406-2.053,5-2.053,7.719
		c0,2.688,0.689,5.281,2.07,7.688c1.381,2.5,3.236,4.406,5.566,5.75c2.328,1.406,4.828,2.094,7.498,2.094
		c2.691,0,5.244-0.688,7.654-2.031c2.412-1.375,4.266-3.188,5.566-5.562c1.299-2.281,1.949-5,1.949-7.781
		c0-4.469-1.457-8.125-4.373-11.219C272.06,243.094,268.472,241.75,264.212,241.75z"/>
</g>
</svg>
