<?xml version="1.0" encoding="utf-8"?>
<!-- Generator: Adobe Illustrator 14.0.0, SVG Export Plug-In . SVG Version: 6.00 Build 43363)  -->
<!DOCTYPE svg PUBLIC "-//W3C//DTD SVG 1.1//EN" "http://www.w3.org/Graphics/SVG/1.1/DTD/svg11.dtd">
<svg version="1.1" id="Layer_1" xmlns="http://www.w3.org/2000/svg" xmlns:xlink="http://www.w3.org/1999/xlink" x="0px" y="0px"
	 width="81.422px" height="79.497px" viewBox="0 0 81.422 79.497" enable-background="new 0 0 81.422 79.497" xml:space="preserve">
<g id="Layer_1_copy">
	<g>
		<path fill="#456730" d="M5.482,44.753c0-3.742,1.872-5.615,3.743-6.553c1.873-0.937,3.745-0.937,3.745-0.937l0,0
			c0,0,7.488,0,7.488,7.489c0,7.488-7.488,7.488-7.488,7.488l0,0c-3.745,0-5.617,1.871-6.555,3.744
			c-0.935,1.873-0.935,3.744-0.935,3.744s0-1.871,0-4.68C5.482,52.244,5.482,48.498,5.482,44.753z"/>
		<path fill="#FDCE0E" d="M12.208,23.902c3.58-3.81,9.064-6.728,17.469-6.728c24.194,0,24.194,24.194,24.194,24.194s0,0,0,10.369
			c0,27.652,27.551,27.652,27.551,27.652V62.107c-0.029,0-3.238-0.223-6.023-1.619c-2.146-1.078-4.244-2.641-4.244-8.75V41.369
			c0-1.689-0.232-10.596-4.85-19.825C59.424,7.785,46.074-0.108,29.678-0.108C17.724-0.108,7.388,4.086,0,11.691L12.208,23.902z"/>
		<path fill="#659840" d="M29.677,17.174c-23.764,0-24.195,20.235-24.195,24.411c0,0.604,0,1.818,0,3.457
			c0-3.457,1.729-5.186,3.456-6.049c1.729-0.864,3.457-0.864,3.457-0.864s6.913,0,6.913,6.913c0,6.912-6.913,6.912-6.913,6.912
			c-3.457,0-5.185,1.729-6.049,3.457s-0.864,3.455-0.864,3.455c0,10.09,0,20.738,0,20.738s0-27.65,27.65-27.65
			c6.138,0,3.543,0,6.585,0c14.154,0,14.154,0,14.154,0s0-6.191,0-10.369C53.873,37.41,53.439,17.174,29.677,17.174z"/>
	</g>
</g>
</svg>
