<?xml version="1.0" encoding="UTF-8" standalone="no"?>
<!-- Created with Inkscape (http://www.inkscape.org/) -->

<svg
   xmlns:dc="http://purl.org/dc/elements/1.1/"
   xmlns:cc="http://creativecommons.org/ns#"
   xmlns:rdf="http://www.w3.org/1999/02/22-rdf-syntax-ns#"
   xmlns:svg="http://www.w3.org/2000/svg"
   xmlns="http://www.w3.org/2000/svg"
   version="1.1"
   width="133.75"
   height="28.75"
   id="svg3004"
   xml:space="preserve"><metadata
     id="metadata3010"><rdf:RDF><cc:Work
         rdf:about=""><dc:format>image/svg+xml</dc:format><dc:type
           rdf:resource="http://purl.org/dc/dcmitype/StillImage" /><dc:title></dc:title></cc:Work></rdf:RDF></metadata><defs
     id="defs3008"><clipPath
       id="clipPath3020"><path
         d="M 0,0 107,0 107,23 0,23 0,0 z"
         id="path3022" /></clipPath><clipPath
       id="clipPath3068"><path
         d="m 0,22.598 106.021,0 0,-22.538 L 0,0.06 0,22.598 z"
         id="path3070" /></clipPath><clipPath
       id="clipPath3074"><path
         d="M 0,0 107,0 107,23 0,23 0,0 z"
         id="path3076" /></clipPath><clipPath
       id="clipPath3086"><path
         d="M 0,0 107,0 107,23 0,23 0,0 z"
         id="path3088" /></clipPath></defs><g
     transform="matrix(1.25,0,0,-1.25,0,28.75)"
     id="g3012"><g
       id="g3014" /><g
       id="g3016"><g
         clip-path="url(#clipPath3020)"
         id="g3018"><path
           d="m 20.928,2.065 0,2.147 -0.495,0 0,0.468 0.495,0 0,1.074 0.53,0 0,-1.074 1.129,0 0,-0.468 -1.129,0 0,-2.078 c 0,-0.434 0.242,-0.592 0.599,-0.592 0.179,0 0.33,0.034 0.516,0.124 l 0,-0.454 c -0.186,-0.097 -0.385,-0.151 -0.64,-0.151 -0.571,0 -1.005,0.281 -1.005,1.004"
           id="path3024"
           style="fill:#ffffff;fill-opacity:1;fill-rule:nonzero;stroke:none" /><path
           d="m 23.627,6.146 0.531,0 0,-2.085 c 0.233,0.385 0.605,0.695 1.217,0.695 0.861,0 1.363,-0.578 1.363,-1.425 l 0,-2.209 -0.53,0 0,2.078 c 0,0.661 -0.358,1.074 -0.984,1.074 -0.612,0 -1.066,-0.448 -1.066,-1.115 l 0,-2.037 -0.531,0 0,5.024"
           id="path3026"
           style="fill:#ffffff;fill-opacity:1;fill-rule:nonzero;stroke:none" /><path
           d="m 30.581,3.097 c -0.056,0.647 -0.427,1.212 -1.136,1.212 -0.619,0 -1.087,-0.517 -1.156,-1.212 l 2.292,0 z m -2.829,-0.206 0,0.013 c 0,1.026 0.722,1.852 1.706,1.852 1.053,0 1.659,-0.84 1.659,-1.879 0,-0.069 0,-0.11 -0.007,-0.172 l -2.821,0 c 0.076,-0.77 0.619,-1.204 1.252,-1.204 0.489,0 0.832,0.199 1.122,0.502 L 30.994,1.707 C 30.635,1.308 30.202,1.039 29.528,1.039 c -0.978,0 -1.776,0.751 -1.776,1.852"
           id="path3028"
           style="fill:#ffffff;fill-opacity:1;fill-rule:nonzero;stroke:none" /><path
           d="m 36.928,3.097 c -0.055,0.647 -0.427,1.212 -1.136,1.212 -0.619,0 -1.086,-0.517 -1.156,-1.212 l 2.292,0 z M 34.1,2.891 l 0,0.013 c 0,1.026 0.722,1.852 1.706,1.852 1.053,0 1.658,-0.84 1.658,-1.879 0,-0.069 0,-0.11 -0.007,-0.172 l -2.821,0 c 0.076,-0.77 0.619,-1.204 1.253,-1.204 0.488,0 0.832,0.199 1.121,0.502 L 37.341,1.707 C 36.983,1.308 36.549,1.039 35.875,1.039 34.898,1.039 34.1,1.79 34.1,2.891"
           id="path3030"
           style="fill:#ffffff;fill-opacity:1;fill-rule:nonzero;stroke:none" /><path
           d="m 37.977,4.68 0.585,0 1.197,-2.952 1.204,2.952 0.572,0 -1.549,-3.585 -0.468,0 -1.541,3.585"
           id="path3032"
           style="fill:#ffffff;fill-opacity:1;fill-rule:nonzero;stroke:none" /><path
           d="m 45.211,2.884 0,0.014 c 0,0.763 -0.571,1.39 -1.321,1.39 -0.77,0 -1.301,-0.627 -1.301,-1.377 l 0,-0.013 c 0,-0.764 0.565,-1.383 1.315,-1.383 0.77,0 1.307,0.619 1.307,1.369 z m -3.165,0 0,0.014 c 0,1.004 0.785,1.858 1.858,1.858 1.066,0 1.851,-0.84 1.851,-1.845 l 0,-0.013 c 0,-1.005 -0.792,-1.859 -1.865,-1.859 -1.066,0 -1.844,0.84 -1.844,1.845"
           id="path3034"
           style="fill:#ffffff;fill-opacity:1;fill-rule:nonzero;stroke:none" /><path
           d="m 46.865,6.146 0.53,0 0,-5.023 -0.53,0 0,5.023 z"
           id="path3036"
           style="fill:#ffffff;fill-opacity:1;fill-rule:nonzero;stroke:none" /><path
           d="m 48.676,2.471 0,2.209 0.53,0 0,-2.078 c 0,-0.661 0.358,-1.074 0.984,-1.074 0.605,0 1.066,0.448 1.066,1.115 l 0,2.037 0.524,0 0,-3.558 -0.524,0 0,0.619 c -0.24,-0.384 -0.605,-0.695 -1.217,-0.695 -0.861,0 -1.363,0.578 -1.363,1.425"
           id="path3038"
           style="fill:#ffffff;fill-opacity:1;fill-rule:nonzero;stroke:none" /><path
           d="m 53.261,2.065 0,2.147 -0.495,0 0,0.468 0.495,0 0,1.074 0.531,0 0,-1.074 1.128,0 0,-0.468 -1.128,0 0,-2.078 c 0,-0.434 0.241,-0.592 0.598,-0.592 0.179,0 0.33,0.034 0.517,0.124 l 0,-0.454 C 54.72,1.115 54.521,1.061 54.266,1.061 c -0.571,0 -1.005,0.281 -1.005,1.004"
           id="path3040"
           style="fill:#ffffff;fill-opacity:1;fill-rule:nonzero;stroke:none" /><path
           d="m 56.008,4.68 0.53,0 0,-3.558 -0.53,0 0,3.558 z m -0.034,1.363 0.606,0 0,-0.585 -0.606,0 0,0.585 z"
           id="path3042"
           style="fill:#ffffff;fill-opacity:1;fill-rule:nonzero;stroke:none" /><path
           d="m 60.819,2.884 0,0.014 c 0,0.763 -0.571,1.39 -1.321,1.39 -0.771,0 -1.301,-0.627 -1.301,-1.377 l 0,-0.013 c 0,-0.764 0.564,-1.383 1.314,-1.383 0.771,0 1.308,0.619 1.308,1.369 z m -3.165,0 0,0.014 c 0,1.004 0.784,1.858 1.857,1.858 1.067,0 1.852,-0.84 1.852,-1.845 l 0,-0.013 c 0,-1.005 -0.792,-1.859 -1.865,-1.859 -1.067,0 -1.844,0.84 -1.844,1.845"
           id="path3044"
           style="fill:#ffffff;fill-opacity:1;fill-rule:nonzero;stroke:none" /><path
           d="m 62.425,4.68 0.531,0 0,-0.619 c 0.233,0.385 0.605,0.695 1.217,0.695 0.861,0 1.363,-0.578 1.363,-1.425 l 0,-2.209 -0.53,0 0,2.078 c 0,0.661 -0.358,1.074 -0.984,1.074 -0.612,0 -1.066,-0.448 -1.066,-1.115 l 0,-2.037 -0.531,0 0,3.558"
           id="path3046"
           style="fill:#ffffff;fill-opacity:1;fill-rule:nonzero;stroke:none" /><path
           d="m 71.884,2.884 0,0.014 c 0,0.763 -0.571,1.39 -1.321,1.39 -0.77,0 -1.301,-0.627 -1.301,-1.377 l 0,-0.013 c 0,-0.764 0.565,-1.383 1.315,-1.383 0.77,0 1.307,0.619 1.307,1.369 z m -3.165,0 0,0.014 c 0,1.004 0.784,1.858 1.858,1.858 1.066,0 1.851,-0.84 1.851,-1.845 l 0,-0.013 c 0,-1.005 -0.792,-1.859 -1.865,-1.859 -1.066,0 -1.844,0.84 -1.844,1.845"
           id="path3048"
           style="fill:#ffffff;fill-opacity:1;fill-rule:nonzero;stroke:none" /><path
           d="m 73.689,4.212 -0.488,0 0,0.461 0.488,0 0,0.31 c 0,0.406 0.11,0.715 0.309,0.916 0.18,0.178 0.442,0.274 0.765,0.274 0.247,0 0.413,-0.027 0.585,-0.089 l 0,-0.461 c -0.193,0.055 -0.338,0.089 -0.517,0.089 -0.412,0 -0.619,-0.247 -0.619,-0.757 l 0,-0.289 1.129,0 0,-0.454 -1.122,0 0,-3.09 -0.53,0 0,3.09"
           id="path3050"
           style="fill:#ffffff;fill-opacity:1;fill-rule:nonzero;stroke:none" /><path
           d="m 78.29,4.68 0.53,0 0,-0.599 c 0.233,0.352 0.55,0.675 1.148,0.675 0.578,0 0.95,-0.31 1.143,-0.709 0.255,0.393 0.634,0.709 1.253,0.709 0.818,0 1.321,-0.551 1.321,-1.432 l 0,-2.202 -0.53,0 0,2.078 c 0,0.689 -0.344,1.074 -0.922,1.074 -0.537,0 -0.978,-0.399 -0.978,-1.101 l 0,-2.051 -0.529,0 0,2.092 c 0,0.668 -0.352,1.06 -0.916,1.06 -0.563,0 -0.99,-0.468 -0.99,-1.122 l 0,-2.03 -0.53,0 0,3.558"
           id="path3052"
           style="fill:#ffffff;fill-opacity:1;fill-rule:nonzero;stroke:none" /><path
           d="m 87.886,2.884 0,0.014 c 0,0.763 -0.571,1.39 -1.321,1.39 -0.771,0 -1.301,-0.627 -1.301,-1.377 l 0,-0.013 c 0,-0.764 0.565,-1.383 1.315,-1.383 0.77,0 1.307,0.619 1.307,1.369 z m -3.165,0 0,0.014 c 0,1.004 0.784,1.858 1.858,1.858 1.066,0 1.851,-0.84 1.851,-1.845 l 0,-0.013 c 0,-1.005 -0.792,-1.859 -1.865,-1.859 -1.067,0 -1.844,0.84 -1.844,1.845"
           id="path3054"
           style="fill:#ffffff;fill-opacity:1;fill-rule:nonzero;stroke:none" /><path
           d="m 92.54,2.891 0,0.013 c 0,0.84 -0.578,1.377 -1.252,1.377 -0.661,0 -1.287,-0.557 -1.287,-1.37 l 0,-0.013 c 0,-0.827 0.626,-1.376 1.287,-1.376 0.688,0 1.252,0.508 1.252,1.369 z m -2.518,-1.087 0,-0.682 -0.53,0 0,5.024 0.53,0 0,-2.182 c 0.289,0.427 0.708,0.792 1.362,0.792 0.854,0 1.701,-0.675 1.701,-1.845 l 0,-0.013 c 0,-1.164 -0.84,-1.852 -1.701,-1.852 -0.661,0 -1.087,0.358 -1.362,0.758"
           id="path3056"
           style="fill:#ffffff;fill-opacity:1;fill-rule:nonzero;stroke:none" /><path
           d="m 94.215,4.68 0.53,0 0,-3.558 -0.53,0 0,3.558 z m -0.034,1.363 0.605,0 0,-0.585 -0.605,0 0,0.585 z"
           id="path3058"
           style="fill:#ffffff;fill-opacity:1;fill-rule:nonzero;stroke:none" /><path
           d="m 96.129,6.146 0.53,0 0,-5.023 -0.53,0 0,5.023 z"
           id="path3060"
           style="fill:#ffffff;fill-opacity:1;fill-rule:nonzero;stroke:none" /><path
           d="m 98.044,4.68 0.53,0 0,-3.558 -0.53,0 0,3.558 z m -0.035,1.363 0.605,0 0,-0.585 -0.605,0 0,0.585 z"
           id="path3062"
           style="fill:#ffffff;fill-opacity:1;fill-rule:nonzero;stroke:none" /></g></g><g
       id="g3064"><g
         clip-path="url(#clipPath3068)"
         id="g3066"><g
           clip-path="url(#clipPath3074)"
           id="g3072"><path
             d="m 100.094,2.065 0,2.147 -0.495,0 0,0.468 0.495,0 0,1.074 0.531,0 0,-1.074 1.128,0 0,-0.468 -1.128,0 0,-2.078 c 0,-0.434 0.241,-0.592 0.598,-0.592 0.179,0 0.33,0.034 0.516,0.124 l 0,-0.454 c -0.186,-0.097 -0.385,-0.151 -0.64,-0.151 -0.571,0 -1.005,0.281 -1.005,1.004"
             id="path3078"
             style="fill:#ffffff;fill-opacity:1;fill-rule:nonzero;stroke:none" /><path
             d="m 105.457,4.68 0.564,0 -1.493,-3.675 C 104.225,0.269 103.88,0 103.344,0 c -0.296,0 -0.516,0.063 -0.757,0.18 l 0.179,0.419 c 0.172,-0.089 0.33,-0.13 0.558,-0.13 0.316,0 0.515,0.165 0.729,0.667 l -1.617,3.544 0.585,0 1.293,-2.966 1.143,2.966"
             id="path3080"
             style="fill:#ffffff;fill-opacity:1;fill-rule:nonzero;stroke:none" /></g></g></g><g
       id="g3082"><g
         clip-path="url(#clipPath3086)"
         id="g3084"><path
           d="m 3.445,11.588 0.965,0 c 0.629,0 1.221,0.559 1.221,1.633 0,1.021 -0.592,1.593 -1.221,1.593 l -0.965,0 0,-3.226 z m 0,5.56 0.836,0 c 0.701,0 1.09,0.628 1.09,1.334 0,0.742 -0.389,1.372 -1.09,1.372 l -0.836,0 0,-2.706 z M 0,22.339 l 5.204,0 c 2.468,0 3.614,-1.32 3.614,-3.301 0,-1.405 -0.613,-2.666 -2.078,-2.965 l 0,-0.037 c 1.744,-0.167 2.449,-1.649 2.449,-3.018 0,-2.299 -1.109,-3.91 -3.985,-3.91 L 0,9.108 0,22.339"
           id="path3090"
           style="fill:#ffffff;fill-opacity:1;fill-rule:nonzero;stroke:none" /><path
           d="m 14.904,11.18 c 1.056,0 1.17,0.967 1.17,4.544 0,3.571 -0.114,4.539 -1.17,4.539 -1.058,0 -1.164,-0.968 -1.164,-4.539 0,-3.577 0.106,-4.544 1.164,-4.544 z m 0,11.418 c 3.524,0 4.725,-1.927 4.725,-6.874 0,-4.952 -1.201,-6.879 -4.725,-6.879 -3.52,0 -4.723,1.927 -4.723,6.879 0,4.947 1.203,6.874 4.723,6.874"
           id="path3092"
           style="fill:#ffffff;fill-opacity:1;fill-rule:nonzero;stroke:none" /><path
           d="m 20.926,22.339 4.926,0 1.392,-7.839 0.036,0 1.394,7.839 4.926,0 0,-13.231 -3.223,0 0,9.858 -0.043,0 -1.83,-9.858 -2.485,0 -1.832,9.858 -0.039,0 0,-9.858 -3.222,0 0,13.231"
           id="path3094"
           style="fill:#ffffff;fill-opacity:1;fill-rule:nonzero;stroke:none" /><path
           d="m 38.563,11.588 0.961,0 c 0.629,0 1.226,0.559 1.226,1.633 0,1.021 -0.597,1.593 -1.226,1.593 l -0.961,0 0,-3.226 z m 0,5.56 0.834,0 c 0.703,0 1.094,0.628 1.094,1.334 0,0.742 -0.391,1.372 -1.094,1.372 l -0.834,0 0,-2.706 z m -3.452,5.191 5.211,0 c 2.461,0 3.613,-1.32 3.613,-3.301 0,-1.405 -0.611,-2.666 -2.077,-2.965 l 0,-0.037 c 1.741,-0.167 2.451,-1.649 2.451,-3.018 0,-2.299 -1.118,-3.91 -3.987,-3.91 l -5.211,0 0,13.231"
           id="path3096"
           style="fill:#ffffff;fill-opacity:1;fill-rule:nonzero;stroke:none" /><path
           d="m 49.904,19.63 -0.037,0 -0.947,-5.61 1.933,0 -0.949,5.61 z m -2.184,2.709 4.332,0 3.225,-13.231 -3.67,0 -0.354,2.32 -2.741,0 -0.35,-2.32 -3.667,0 3.225,13.231"
           id="path3098"
           style="fill:#ffffff;fill-opacity:1;fill-rule:nonzero;stroke:none" /><path
           d="m 59.664,16.74 0.689,0 c 0.979,0 1.439,0.63 1.439,1.578 0,1.073 -0.423,1.536 -1.464,1.536 l -0.664,0 0,-3.114 z m -3.446,5.599 5.397,0 c 2.627,0 3.631,-1.483 3.631,-3.524 0,-1.758 -0.692,-2.905 -2.262,-3.15 l 0,-0.035 c 1.666,-0.147 2.164,-1.2 2.164,-2.968 l 0,-1.127 c 0,-0.683 0,-1.572 0.17,-1.838 0.096,-0.142 0.168,-0.295 0.388,-0.4 l 0,-0.189 -3.671,0 c -0.33,0.703 -0.33,1.964 -0.33,2.517 l 0,0.895 c 0,1.5 -0.301,1.89 -1.129,1.89 l -0.912,0 0,-5.302 -3.446,0 0,13.231"
           id="path3100"
           style="fill:#ffffff;fill-opacity:1;fill-rule:nonzero;stroke:none" /><path
           d="m 70.187,11.588 0.687,0 c 1.334,0 1.5,0.559 1.5,4.136 0,3.571 -0.166,4.13 -1.5,4.13 l -0.687,0 0,-8.266 z m -3.447,10.751 4.998,0 c 3.986,0 4.191,-3.15 4.191,-6.615 0,-3.47 -0.205,-6.616 -4.191,-6.616 l -4.998,0 0,13.231"
           id="path3102"
           style="fill:#ffffff;fill-opacity:1;fill-rule:nonzero;stroke:none" /><path
           d="m 77.316,22.339 3.443,0 0,-13.231 -3.443,0 0,13.231 z"
           id="path3104"
           style="fill:#ffffff;fill-opacity:1;fill-rule:nonzero;stroke:none" /><path
           d="m 82.31,22.339 7.834,0 0,-2.816 -4.395,0 0,-2.262 4.116,0 0,-2.706 -4.116,0 0,-2.631 4.561,0 0,-2.816 -8,0 0,13.231"
           id="path3106"
           style="fill:#ffffff;fill-opacity:1;fill-rule:nonzero;stroke:none" /><path
           d="m 95.015,16.74 0.684,0 c 0.986,0 1.449,0.63 1.449,1.578 0,1.073 -0.428,1.536 -1.465,1.536 l -0.668,0 0,-3.114 z m -3.445,5.599 5.39,0 c 2.635,0 3.629,-1.483 3.629,-3.524 0,-1.758 -0.679,-2.905 -2.255,-3.15 l 0,-0.035 c 1.671,-0.147 2.167,-1.2 2.167,-2.968 l 0,-1.127 c 0,-0.683 0,-1.572 0.168,-1.838 0.09,-0.142 0.17,-0.295 0.385,-0.4 l 0,-0.189 -3.666,0 c -0.332,0.703 -0.332,1.964 -0.332,2.517 l 0,0.895 c 0,1.5 -0.301,1.89 -1.135,1.89 l -0.906,0 0,-5.302 -3.445,0 0,13.231"
           id="path3108"
           style="fill:#ffffff;fill-opacity:1;fill-rule:nonzero;stroke:none" /></g></g></g></svg>