<?xml version="1.0" encoding="UTF-8" standalone="no"?>
<!-- Created with Inkscape (http://www.inkscape.org/) -->

<svg
   xmlns:dc="http://purl.org/dc/elements/1.1/"
   xmlns:cc="http://creativecommons.org/ns#"
   xmlns:rdf="http://www.w3.org/1999/02/22-rdf-syntax-ns#"
   xmlns:svg="http://www.w3.org/2000/svg"
   xmlns="http://www.w3.org/2000/svg"
   version="1.1"
   width="51.989376"
   height="43.920536"
   id="svg3004"
   xml:space="preserve"><metadata
     id="metadata3010"><rdf:RDF><cc:Work
         rdf:about=""><dc:format>image/svg+xml</dc:format><dc:type
           rdf:resource="http://purl.org/dc/dcmitype/StillImage" /><dc:title></dc:title></cc:Work></rdf:RDF></metadata><defs
     id="defs3008"><clipPath
       id="clipPath3020"><path
         d="M 0,0 396,0 396,612 0,612 0,0 z"
         id="path3022" /></clipPath><clipPath
       id="clipPath3036"><path
         d="m 180.901,47.822 34.198,0 0,32.433 -34.198,0 0,-32.433 z"
         id="path3038" /></clipPath><clipPath
       id="clipPath3050"><path
         d="M 0,0 396,0 396,612 0,612 0,0 z"
         id="path3052" /></clipPath></defs><g
     transform="matrix(1.25,0,0,-1.25,-222.04775,101.94095)"
     id="g3012"><g
       id="g3014" /><g
       id="g3016"><g
         clip-path="url(#clipPath3020)"
         id="g3018"><path
           d="M 0,0 396,0 396,612 0,612 0,0 z"
           id="path3024"
           style="fill:#1061a3;fill-opacity:1;fill-rule:nonzero;stroke:none" /><path
           d="m -23.98,-23.98 442.52,0 0,659.24 -442.52,0 0,-659.24 z"
           id="path3026"
           style="fill:none;stroke:#fcd006;stroke-width:1;stroke-linecap:butt;stroke-linejoin:miter;stroke-miterlimit:4;stroke-opacity:1;stroke-dasharray:none" /><path
           d="m 188.0323,47.9382 10.195,16.032 -10.195,16.285 16.93,0 10.136,-16.285 -10.136,-16.032 -16.93,0 z"
           id="path3028"
           style="fill:#fcd006;fill-opacity:1;fill-rule:nonzero;stroke:none" /><path
           d="m 202.2296,62.0561 6.787,0 0,-2.019 -2.371,0 0,-4.545 -2.04,0 0,4.545 -2.376,0 0,2.019 z"
           id="path3030"
           style="fill:#ffffff;fill-opacity:1;fill-rule:nonzero;stroke:none" /></g></g><g
       id="g3032"><g
         clip-path="url(#clipPath3036)"
         id="g3034"><path
           d="m 180.9012,55.4862 0,6.584 4.073,0 c 1.878,0 3.388,-1.475 3.388,-3.296 0,-1.82 -1.51,-3.283 -3.372,-3.283 l -4.089,-0.005 z m 2.039,1.959 0,2.577 2.031,0 c 0.749,0 1.342,-0.58 1.342,-1.295 0,-0.716 -0.593,-1.283 -1.325,-1.283 l -2.048,10e-4 z"
           id="path3040"
           style="fill:#ffffff;fill-opacity:1;fill-rule:evenodd;stroke:none" /><path
           d="m 199.3327,59.0028 -2.168,0 0,1.035 2.165,0 c 0.296,0 0.534,-0.232 0.534,-0.518 0,-0.287 -0.238,-0.517 -0.531,-0.517 m 3.147,-3.532 -1.482,1.947 c 0.668,0.552 0.953,1.201 0.953,2.008 0,1.459 -1.211,2.642 -2.717,2.642 l -4.114,0 0,-5.813 -3.701,5.806 -4.172,-6.569 2.264,0 1.908,3.008 0.701,-1.102 -0.78,0 -1.213,-1.906 7.038,0 0,3.445 2.6,-3.466 2.715,0 z"
           id="path3042"
           style="fill:#ffffff;fill-opacity:1;fill-rule:evenodd;stroke:none" /><path
           d="m 209.0868,49.5483 c -0.052,0.021 -0.125,0.03 -0.218,0.03 l -0.092,0 0,-0.416 0.146,0 c 0.088,0 0.157,0.017 0.205,0.053 0.05,0.035 0.075,0.092 0.075,0.17 0,0.079 -0.04,0.133 -0.116,0.163 m -0.684,-1.151 0,1.432 c 0.089,0 0.222,0 0.4,-0.001 0.176,0 0.276,-10e-4 0.295,-0.002 0.114,-0.008 0.208,-0.033 0.283,-0.074 0.128,-0.069 0.191,-0.184 0.191,-0.341 0,-0.121 -0.033,-0.207 -0.101,-0.262 -0.067,-0.053 -0.15,-0.086 -0.249,-0.096 0.09,-0.019 0.157,-0.047 0.203,-0.083 0.084,-0.068 0.126,-0.175 0.126,-0.321 l 0,-0.128 c 0,-0.015 10e-4,-0.028 0.004,-0.043 0.001,-0.013 0.005,-0.028 0.011,-0.042 l 0.015,-0.039 -0.361,0 c -0.012,0.045 -0.02,0.11 -0.024,0.197 -0.005,0.086 -0.012,0.145 -0.024,0.175 -0.018,0.05 -0.053,0.085 -0.106,0.105 -0.028,0.012 -0.07,0.019 -0.127,0.023 l -0.082,0.005 -0.08,0 0,-0.505 -0.374,0 z m -0.19,1.466 c -0.205,-0.21 -0.307,-0.459 -0.307,-0.747 0,-0.3 0.104,-0.554 0.313,-0.763 0.207,-0.21 0.457,-0.314 0.752,-0.314 0.292,0 0.542,0.106 0.75,0.316 0.207,0.211 0.311,0.464 0.311,0.761 0,0.287 -0.103,0.536 -0.309,0.747 -0.209,0.216 -0.46,0.323 -0.752,0.323 -0.297,0 -0.549,-0.107 -0.758,-0.323 m 1.66,-1.676 c -0.251,-0.244 -0.552,-0.365 -0.904,-0.365 -0.364,0 -0.67,0.125 -0.92,0.374 -0.249,0.249 -0.374,0.555 -0.374,0.919 0,0.377 0.135,0.693 0.404,0.942 0.254,0.233 0.55,0.351 0.89,0.351 0.356,0 0.661,-0.126 0.913,-0.379 0.253,-0.253 0.379,-0.557 0.379,-0.914 0,-0.367 -0.129,-0.677 -0.388,-0.928"
           id="path3044"
           style="fill:#ffffff;fill-opacity:1;fill-rule:nonzero;stroke:none" /></g></g><g
       id="g3046"><g
         clip-path="url(#clipPath3050)"
         id="g3048"><text
           transform="matrix(1,0,0,-1,144.8158,338.75)"
           id="text3054"><tspan
             x="0 5.77 11.14 15.11 19.08 24.450001 28.629999 30 35.369999 40 44.169998 49.540001 50.91 55.59 60.959999 65.529999 67.169998 73.080002 74.040001 78.260002 82.940002 88.309998 94.139999 98.32 99.959999"
             y="0"
             id="tspan3056"
             style="font-size:10px;font-variant:normal;font-weight:normal;writing-mode:lr-tb;fill:#ffffff;fill-opacity:1;fill-rule:nonzero;stroke:none;font-family:MyriadPro;-inkscape-font-specification:MyriadPro-Regular">DALLAS AREA RAPID TRANSIT</tspan></text>
<text
           transform="matrix(1,0,0,-1,116.4314,316.25)"
           id="text3058"><tspan
             x="0 11.575 22 32.299999 42.724998 54.299999 64.724998 79.300003 91.925003 102.35 105.775 117.45 132.8 148.14999"
             y="0"
             id="tspan3060"
             style="font-size:25px;font-variant:normal;font-weight:normal;writing-mode:lr-tb;fill:#ffffff;fill-opacity:1;fill-rule:nonzero;stroke:none;font-family:MyriadPro;-inkscape-font-specification:MyriadPro-Regular">REFERENCE BOOK</tspan></text>
<text
           transform="matrix(1,0,0,-1,175.4705,279.75)"
           id="text3062"><tspan
             x="0 4.8299999 9 13.63 17.809999 19.450001 25.59 31.42 32.790001 37.169998 38.490002"
             y="0"
             id="tspan3064"
             style="font-size:10px;font-variant:normal;font-weight:normal;writing-mode:lr-tb;fill:#ffffff;fill-opacity:1;fill-rule:nonzero;stroke:none;font-family:MyriadPro;-inkscape-font-specification:MyriadPro-Regular">VERSION 5.1</tspan></text>
<text
           transform="matrix(1,0,0,-1,163.0609,118.1078)"
           id="text3066"><tspan
             x="0 14.7 22.68 30.6 33.34 42.099998 50.860001 59.619999"
             y="0"
             id="tspan3068"
             style="font-size:20px;font-variant:normal;font-weight:normal;writing-mode:lr-tb;fill:#ffffff;fill-opacity:1;fill-rule:nonzero;stroke:none;font-family:MyriadPro;-inkscape-font-specification:MyriadPro-Regular">May 2014</tspan></text>
</g></g></g></svg>